<?xml version="1.0" encoding="utf-8"?><!-- Uploaded to: SVG Repo, www.svgrepo.com, Generator: SVG Repo Mixer Tools -->
<svg fill="#000000" width="800px" height="800px" viewBox="0 0 24 24" id="barrier" data-name="Line Color" xmlns="http://www.w3.org/2000/svg" class="icon line-color"><path id="secondary" d="M6,5V3M6,17v4M18,5V3M6,13V9m12,4V9m0,8v4m-2,0h4M4,21H8" style="fill: none; stroke: rgb(44, 169, 188); stroke-linecap: round; stroke-linejoin: round; stroke-width: 2;"></path><path id="primary" d="M20,9H4A1,1,0,0,1,3,8V6A1,1,0,0,1,4,5H20a1,1,0,0,1,1,1V8A1,1,0,0,1,20,9Zm0,8H4a1,1,0,0,1-1-1V14a1,1,0,0,1,1-1H20a1,1,0,0,1,1,1v2A1,1,0,0,1,20,17Z" style="fill: none; stroke: rgb(0, 0, 0); stroke-linecap: round; stroke-linejoin: round; stroke-width: 2;"></path></svg>